# xmcd CD database file
#
# Track frame offsets:
#	150
#	10710
#	21732
#	35612
#	47240
#	61657
#	76147
#	87230
#	100330
#	113282
#	126802
#	137572
#	155882
#	169232
#
# Disc length: 2567 seconds
#
# Revision: 0
# Processed by: cddbd v1.4PL0 Copyright (c) Steve Scherf et al.
# Submitted via: CDex 1.50beta9
#
DISCID=af0a050e
DTITLE=FINBARR HARTE - THE STORY OF MY LIFE
DYEAR=1900
DGENRE=Country
TTITLE0=The Story Of My Life
TTITLE1=Sunset Years Of Life
TTITLE2=Five Little Fingers
TTITLE3=Wing Of A Dove
TTITLE4=Heartacjes By The Number
TTITLE5=Rose Rio
TTITLE6=Do You Know You Are My Sunshine
TTITLE7=Belle Of The Ball
TTITLE8=The Promise And The Dream
TTITLE9=Only The Children
TTITLE10=Who Am I To Say
TTITLE11=My Forever Friend
TTITLE12=Eileen McManus
TTITLE13=Irish Medley-When Irish Eyes Are Smiling-Too Ra Loo Re Loo Ral-Thats An Irish Lullaby-Wild colonial Boy-These Are My Mountains
EXTD=
EXTT0=
EXTT1=
EXTT2=
EXTT3=
EXTT4=
EXTT5=
EXTT6=
EXTT7=
EXTT8=
EXTT9=
EXTT10=
EXTT11=
EXTT12=
EXTT13=
PLAYORDER=
